<?xml version="1.0" standalone="no"?><!DOCTYPE svg PUBLIC "-//W3C//DTD SVG 1.1//EN" "http://www.w3.org/Graphics/SVG/1.1/DTD/svg11.dtd"><svg t="1544853197264" class="icon" style="" viewBox="0 0 1025 1024" version="1.1" xmlns="http://www.w3.org/2000/svg" p-id="5541" xmlns:xlink="http://www.w3.org/1999/xlink" width="200.1953125" height="200"><defs><style type="text/css"></style></defs><path d="M511.954 63.941c-247.46 0-448.063 200.603-448.063 448.061 0 247.454 200.604 448.058 448.063 448.058 247.453 0 448.052-200.604 448.052-448.058 0-247.458-200.599-448.06-448.052-448.06z m-41.548 671.385c-114.514 0-231.571-55.497-231.571-146.778 0-47.722 30.232-102.907 82.306-154.984 69.523-69.506 150.6-101.167 181.093-70.66 13.455 13.437 14.758 36.716 6.107 64.506-4.504 13.997 13.139 6.244 13.139 6.278 56.197-23.528 105.222-24.916 123.142 0.688 9.562 13.642 8.647 32.776-0.166 54.95-4.078 10.215 1.256 11.796 9.026 14.13 31.665 9.816 66.907 33.559 66.907 75.4 0.001 69.249-99.858 156.47-249.983 156.47z m207.313-290.24c3.706-11.44 1.385-24.485-7.248-34.054-8.624-9.552-21.373-13.176-33.131-10.693v-0.022c-9.81 2.137-19.472-4.159-21.575-13.959-2.111-9.838 4.154-19.515 13.985-21.609 24.053-5.11 50.106 2.321 67.748 21.895 17.682 19.575 22.413 46.235 14.853 69.626-3.086 9.573-13.344 14.787-22.904 11.728-9.56-3.095-14.788-13.365-11.706-22.917h-0.018l-0.004 0.005z m106.023 34.238c-0.004 0.018-0.004 0.06-0.004 0.081-3.599 11.095-15.523 17.17-26.61 13.58-11.133-3.596-17.215-15.49-13.625-26.61l-0.004-0.01c11.027-34.14 4.035-73.082-21.715-101.628-25.772-28.554-63.77-39.461-98.885-32.003-11.42 2.431-22.651-4.856-25.088-16.267-2.444-11.397 4.838-22.638 16.258-25.083h0.02c49.36-10.492 102.83 4.829 139.086 45.025 36.264 40.153 46.038 94.894 30.567 142.915z m0 0" fill="#D81E06" p-id="5542"></path><path d="M624.549 570.132c-5.924-59.97-84.807-101.274-176.196-92.239-91.371 9.034-160.66 64.98-154.723 124.96 5.936 60 84.814 101.304 176.195 92.286 91.389-9.04 160.652-64.99 154.724-125.007z m-96.022 49.243c-18.648 42.179-72.289 64.669-117.793 49.991-43.932-14.176-62.532-57.556-43.298-96.632 18.89-38.315 68.035-59.984 111.517-48.671 45.005 11.63 67.968 54.082 49.574 95.312z m0 0" fill="#D81E06" p-id="5543"></path><path d="M435.544 587.24c-14.147-5.932-32.439 0.166-41.17 13.86-8.838 13.749-4.693 30.126 9.36 36.525 14.253 6.509 33.178 0.329 42.021-13.771 8.68-14.241 4.107-30.511-10.206-36.614h-0.005z m0 0M470.42 572.78c-5.429-2.153-12.22 0.458-15.405 5.797-3.09 5.368-1.384 11.484 4.057 13.719 5.534 2.278 12.6-0.35 15.796-5.812 3.051-5.501 1.07-11.685-4.449-13.703z m0 0" fill="#D81E06" p-id="5544"></path></svg>